<?xml version="1.0" encoding="UTF-8" standalone="no"?>
<!-- Created with Inkscape (http://www.inkscape.org/) -->

<svg
   width="107.92779mm"
   height="108.16137mm"
   viewBox="0 0 107.92779 108.16137"
   version="1.1"
   id="svg5"
   xmlns:inkscape="http://www.inkscape.org/namespaces/inkscape"
   xmlns:sodipodi="http://sodipodi.sourceforge.net/DTD/sodipodi-0.dtd"
   xmlns="http://www.w3.org/2000/svg"
   xmlns:svg="http://www.w3.org/2000/svg">
  <sodipodi:namedview
     id="namedview7"
     pagecolor="#ffffff"
     bordercolor="#000000"
     borderopacity="0.25"
     inkscape:showpageshadow="2"
     inkscape:pageopacity="0.0"
     inkscape:pagecheckerboard="0"
     inkscape:deskcolor="#d1d1d1"
     inkscape:document-units="mm"
     showgrid="false" />
  <defs
     id="defs2" />
  <g
     inkscape:label="Layer 1"
     inkscape:groupmode="layer"
     id="layer1"
     transform="translate(-23.406567,-36.898581)">
    <path
       sodipodi:type="star"
       style="fill:#ff9900;fill-opacity:1;stroke:#37c8ab;stroke-width:0;stroke-linecap:round;stroke-miterlimit:100"
       id="path234"
       inkscape:flatsided="false"
       sodipodi:sides="34"
       sodipodi:cx="2.4104109"
       sodipodi:cy="30.58087"
       sodipodi:r1="50.307823"
       sodipodi:r2="54.094433"
       sodipodi:arg1="0.90136228"
       sodipodi:arg2="0.99376206"
       inkscape:rounded="0.17"
       inkscape:randomized="0"
       d="m 33.628542,70.030906 c -0.816961,0.646489 -0.834284,5.317305 -1.707411,5.885656 -0.873127,0.568352 -5.151218,-1.306417 -6.073062,-0.821051 -0.921843,0.485365 -1.797131,5.073468 -2.759825,5.471706 -0.962695,0.398237 -4.823456,-2.230707 -5.818789,-1.922994 -0.995333,0.307712 -2.698779,4.656861 -3.718258,4.871423 -1.019479,0.214562 -4.3314363,-3.079032 -5.3663637,-2.959451 -1.0349274,0.119581 -3.5085229,4.08167 -4.550069,4.10525 -1.0415462,0.02358 -3.69191459,-3.822505 -4.7311934,-3.895128 -1.0392788,-0.07262 -4.1987885,3.367483 -5.2269332,3.199278 -1.0281447,-0.168205 -2.9266692,-4.435808 -3.9349077,-4.698161 -1.008239,-0.262352 -4.74607,2.53862 -5.725801,2.184358 -0.979731,-0.354262 -2.061759,-4.898054 -3.004624,-5.341203 -0.942864,-0.443149 -5.131728,1.623307 -6.029682,1.095051 -0.897954,-0.528255 -1.126639,-5.193502 -1.972021,-5.802356 -0.845382,-0.608855 -5.342633,0.652714 -6.128231,-0.03154 -0.785598,-0.68426 -0.153153,-5.312093 -0.872264,-6.065919 -0.71911,-0.753826 -5.3716,-0.340106 -6.018089,-1.157067 -0.646489,-0.816962 0.825549,-5.249786 0.257198,-6.122913 -0.568352,-0.873127 -5.217645,-1.321344 -5.70301,-2.243187 -0.485365,-0.921844 1.776139,-5.008704 1.377901,-5.971399 -0.398237,-0.962695 -4.886008,-2.257585 -5.19372,-3.252918 -0.307713,-0.995333 2.666243,-4.597056 2.451681,-5.616535 -0.214562,-1.019479 -4.387984,-3.116947 -4.507565,-4.151875 -0.119581,-1.034927 3.465552,-4.028862 3.441972,-5.070408 -0.02358,-1.041546 -3.740533,-3.870165 -3.66791,-4.909444 0.07262,-1.039279 4.146846,-3.323469 4.315051,-4.351614 0.168205,-1.028144 -2.965702,-4.491589 -2.703349,-5.499828 0.262352,-1.008239 4.686924,-2.5049 5.041186,-3.484631 0.354262,-0.979731 -2.089878,-4.9600574 -1.646729,-5.9029218 0.443149,-0.9428644 5.067394,-1.6010291 5.59565,-2.4989828 0.528255,-0.8979537 -1.142886,-5.25961755 -0.534032,-6.1049994 0.608855,-0.845382 5.275301,-0.6426373 5.95956,-1.428235 0.68426,-0.7855976 -0.156973,-5.3800672 0.596853,-6.0991782 0.753826,-0.7191109 5.303563,0.3376389 6.120525,-0.3088502 0.816961,-0.6464891 0.834283,-5.3173056 1.70741,-5.8856566 0.873128,-0.568352 5.151219,1.306417 6.073063,0.821052 0.921843,-0.485365 1.79713,-5.073469 2.759825,-5.471706 0.962695,-0.398238 4.823456,2.230706 5.818789,1.922994 0.995333,-0.307713 2.6987788,-4.656862 3.7182578,-4.871424 1.0194791,-0.214562 4.3314362,3.079033 5.3663637,2.959452 1.0349274,-0.119582 3.50852285,-4.081671 4.550069,-4.105251 1.0415462,-0.02358 3.6919146,3.822506 4.7311934,3.895128 1.0392788,0.07262 4.1987881,-3.367482 5.2269331,-3.199277 1.028145,0.168205 2.926669,4.435807 3.934908,4.69816 1.008239,0.262353 4.74607,-2.53862 5.7258,-2.184357 0.979731,0.354262 2.06176,4.898053 3.004624,5.341202 0.942865,0.443149 5.131729,-1.623306 6.029683,-1.095051 0.897954,0.528255 1.126639,5.193502 1.972021,5.802357 0.845382,0.6088541 5.342633,-0.652715 6.128231,0.03154 0.785597,0.684259 0.153152,5.3120921 0.872263,6.0659182 0.719111,0.7538262 5.371601,0.3401059 6.01809,1.1570676 0.646489,0.8169616 -0.82555,5.2497855 -0.257198,6.1229127 0.568351,0.8731271 5.217644,1.3213439 5.703009,2.2431873 0.485365,0.9218434 -1.776138,5.0087032 -1.377901,5.9713982 0.398238,0.962695 4.886008,2.257585 5.193721,3.252918 0.307712,0.995333 -2.666244,4.597057 -2.451681,5.616536 0.214562,1.019479 4.387984,3.116947 4.507565,4.151874 0.119581,1.034928 -3.465552,4.028862 -3.441972,5.070408 0.02358,1.041546 3.740532,3.870165 3.66791,4.909444 -0.07262,1.039279 -4.146846,3.323469 -4.315051,4.351614 -0.168205,1.028145 2.965702,4.491589 2.703349,5.499828 -0.262353,1.008239 -4.686924,2.5049 -5.041186,3.484631 -0.354262,0.979731 2.089878,4.960058 1.646729,5.902922 -0.443149,0.942865 -5.067395,1.601029 -5.59565,2.498983 -0.528255,0.897954 1.142886,5.259617 0.534031,6.104999 -0.608854,0.845382 -5.2753,0.642638 -5.95956,1.428235 -0.684259,0.785598 0.156974,5.380068 -0.596852,6.099179 -0.753826,0.71911 -5.303563,-0.337639 -6.120525,0.30885 z"
       inkscape:transform-center-x="0.68709751"
       inkscape:transform-center-y="-4.5077249"
       transform="translate(74.960053,60.398393)"
       inkscape:export-filename="shape.svg"
       inkscape:export-xdpi="96"
       inkscape:export-ydpi="96" />
  </g>
</svg>
