<svg width="22" height="22" viewBox="0 0 22 22" fill="none" xmlns="http://www.w3.org/2000/svg">
<path fill-rule="evenodd" clip-rule="evenodd" d="M2.32983 10.9176C2.32983 6.15242 6.1928 2.28946 10.958 2.28946C15.7232 2.28946 19.5862 6.15242 19.5862 10.9176C19.5862 15.6828 15.7232 19.5458 10.958 19.5458C6.1928 19.5458 2.32983 15.6828 2.32983 10.9176ZM10.958 0.789459C5.36437 0.789459 0.829834 5.324 0.829834 10.9176C0.829834 16.5113 5.36437 21.0458 10.958 21.0458C16.5516 21.0458 21.0862 16.5113 21.0862 10.9176C21.0862 5.324 16.5516 0.789459 10.958 0.789459ZM10.9891 5.29346C11.4033 5.29346 11.7391 5.62924 11.7391 6.04346V10.2602H15.9559C16.3701 10.2602 16.7059 10.596 16.7059 11.0102C16.7059 11.4244 16.3701 11.7602 15.9559 11.7602H11.7391V15.9769C11.7391 16.3911 11.4033 16.7269 10.9891 16.7269C10.5749 16.7269 10.2391 16.3911 10.2391 15.9769V11.7602H6.02246C5.60825 11.7602 5.27246 11.4244 5.27246 11.0102C5.27246 10.596 5.60825 10.2602 6.02246 10.2602H10.2391V6.04346C10.2391 5.62924 10.5749 5.29346 10.9891 5.29346Z" fill="#323130"/>
</svg>
