<svg width="20" height="20" viewBox="0 0 20 20" fill="none" xmlns="http://www.w3.org/2000/svg">
<path fill-rule="evenodd" clip-rule="evenodd" d="M17.9218 1.09595C18.2147 0.803059 18.6896 0.803058 18.9825 1.09595C19.2754 1.38884 19.2754 1.86372 18.9825 2.15661L11.0817 10.0574L18.9825 17.9583C19.2754 18.2512 19.2754 18.7261 18.9825 19.0189C18.6896 19.3118 18.2147 19.3118 17.9218 19.0189L10.021 11.1181L2.12017 19.0189C1.82728 19.3118 1.35241 19.3118 1.05951 19.0189C0.76662 18.7261 0.76662 18.2512 1.05951 17.9583L8.96034 10.0574L1.05951 2.15661C0.766621 1.86372 0.766621 1.38884 1.05951 1.09595C1.35241 0.803058 1.82728 0.803059 2.12017 1.09595L10.021 8.99679L17.9218 1.09595Z" fill="#323130"/>
</svg>
