<svg width="22" height="20" viewBox="0 0 22 20" fill="none" xmlns="http://www.w3.org/2000/svg">
<path fill-rule="evenodd" clip-rule="evenodd" d="M16.6445 3.60849V3.6065L19.3981 6.34013L16.6445 9.17353V8.11447V7.36447H15.8945C15.033 7.36447 14.1883 7.47636 13.176 7.98416C12.4855 8.33053 11.7342 8.85246 10.85 9.61794C11.0611 8.77716 11.4013 7.89915 11.9092 7.13921C12.7284 5.9134 13.9724 4.99958 15.8945 4.99958H16.6445V4.24958V4.24633V4.24307V4.23979V4.23651V4.23321V4.22991V4.22659V4.22326V4.21992V4.21658V4.21322V4.20985V4.20647V4.20308V4.19968V4.19627V4.19285V4.18941V4.18597V4.18252V4.17906V4.17559V4.1721V4.16861V4.16511V4.1616V4.15808V4.15454V4.151V4.14745V4.14389V4.14032V4.13674V4.13315V4.12955V4.12594V4.12232V4.11869V4.11506V4.11141V4.10775V4.10409V4.10041V4.09673V4.09303V4.08933V4.08562V4.0819V4.07817V4.07443V4.07069V4.06693V4.06316V4.05939V4.05561V4.05182V4.04802V4.04421V4.04039V4.03656V4.03273V4.02889V4.02503V4.02117V4.01731V4.01343V4.00954V4.00565V4.00175V3.99784V3.99392V3.99V3.98606V3.98212V3.97817V3.97421V3.97025V3.96627V3.96229V3.9583V3.95431V3.9503V3.94629V3.94227V3.93824V3.93421V3.93016V3.92611V3.92206V3.91799V3.91392V3.90984V3.90575V3.90166V3.89756V3.89345V3.88933V3.88521V3.88108V3.87695V3.8728V3.86865V3.86449V3.86033V3.85616V3.85198V3.8478V3.84361V3.83941V3.83521V3.83099V3.82678V3.82255V3.81832V3.81409V3.80984V3.80559V3.80134V3.79708V3.79281V3.78854V3.78426V3.77997V3.77568V3.77138V3.76707V3.76276V3.75845V3.75413V3.7498V3.74547V3.74113V3.73678V3.73243V3.72808V3.72371V3.71935V3.71497V3.7106V3.70621V3.70182V3.69743V3.69303V3.68863V3.68422V3.6798V3.67538V3.67096V3.66653V3.66209V3.65765V3.65321V3.64876V3.6443V3.63984V3.63538V3.63091V3.62643V3.62196V3.61747V3.61299V3.60849ZM16.5934 1.44208C16.0578 0.910362 15.1445 1.28838 15.1445 2.04523V2.04886V2.0525V2.05615V2.05981V2.06348V2.06716V2.07085V2.07454V2.07825V2.08196V2.08569V2.08942V2.09316V2.09691V2.10067V2.10444V2.10822V2.112V2.1158V2.1196V2.12341V2.12723V2.13106V2.1349V2.13874V2.1426V2.14646V2.15033V2.15421V2.1581V2.162V2.1659V2.16981V2.17373V2.17766V2.1816V2.18554V2.1895V2.19346V2.19742V2.2014V2.20539V2.20938V2.21338V2.21738V2.2214V2.22542V2.22945V2.23349V2.23753V2.24159V2.24565V2.24971V2.25379V2.25787V2.26196V2.26606V2.27016V2.27427V2.27839V2.28251V2.28665V2.29079V2.29493V2.29908V2.30324V2.30741V2.31158V2.31576V2.31995V2.32414V2.32834V2.33255V2.33676V2.34098V2.34521V2.34944V2.35368V2.35792V2.36217V2.36643V2.3707V2.37497V2.37924V2.38352V2.38781V2.39211V2.39641V2.40071V2.40503V2.40934V2.41367V2.418V2.42233V2.42667V2.43102V2.43537V2.43973V2.44409V2.44846V2.45284V2.45722V2.4616V2.46599V2.47039V2.47479V2.4792V2.48361V2.48803V2.49245V2.49687V2.50131V2.50574V2.51018V2.51463V2.51908V2.52354V2.528V2.53247V2.53694V2.54141V2.54589V2.55038V2.55487V2.55936V2.56386V2.56836V2.57287V2.57738V2.58189V2.58641V2.59094V2.59547V2.6V2.60453V2.60907V2.61362V2.61817V2.62272V2.62728V2.63184V2.6364V2.64097V2.64554V2.65012V2.65469V2.65928V2.66386V2.66845V2.67305V2.67764V2.68224V2.68685V2.69145V2.69606V2.70068V2.7053V2.70992V2.71454V2.71916V2.72379V2.72843V2.73306V2.7377V2.74234V2.74699V2.75163V2.75628V2.76093V2.76559V2.77025V2.77491V2.77957V2.78424V2.78891V2.79358V2.79825V2.80292V2.8076V2.81228V2.81697V2.82165V2.82634V2.83103V2.83572V2.84041V2.84511V2.8498V2.8545V2.8592V2.86391V2.86861V2.87332V2.87803V2.88274V2.88745V2.89216V2.89688V2.90159V2.90631V2.91103V2.91575V2.92048V2.9252V2.92993V2.93465V2.93938V2.94411V2.94884V2.95357V2.9583V2.96304V2.96777V2.97251V2.97724V2.98198V2.98672V2.99146V2.9962V3.00094V3.00568V3.01042V3.01516V3.01991V3.02465V3.02939V3.03414V3.03888V3.04363V3.04837V3.05312V3.05786V3.06261V3.06736V3.0721V3.07685V3.0816V3.08634V3.09109V3.09584V3.10058V3.10533V3.11008V3.11482V3.11957V3.12431V3.12906V3.1338V3.13855V3.14329V3.14803V3.15278V3.15752V3.16226V3.167V3.17174V3.17648V3.18122V3.18596V3.19069V3.19543V3.20017V3.2049V3.20963V3.21436V3.2191V3.22383V3.22855V3.23328V3.23801V3.24273V3.24746V3.25218V3.2569V3.26162V3.26634V3.27105V3.27577V3.28048V3.28519V3.2899V3.29461V3.29931V3.30402V3.30872V3.31342V3.31812V3.32282V3.32751V3.3322V3.33689V3.34158V3.34627V3.35095V3.35563V3.36031V3.36499V3.36967V3.37434V3.37901V3.38368V3.38834V3.393V3.39766V3.40232V3.40697V3.41162V3.41627V3.42092V3.42556V3.4302V3.43484V3.43947V3.44411V3.44873V3.45336V3.45798V3.4626V3.46722V3.47183V3.47644V3.48104V3.48565V3.49025V3.49484V3.49943V3.50402V3.50861V3.51319V3.51777V3.52234V3.52691V3.53148V3.53604V3.53817C13.0481 3.75879 11.6015 4.89997 10.6621 6.30575C9.63582 7.84132 9.20546 9.69438 9.09504 11.0579C9.01832 12.0052 10.1261 12.3569 10.6958 11.8016C12.09 10.4429 13.0673 9.71684 13.8486 9.32493C14.3201 9.08843 14.732 8.96749 15.1445 8.91017V10.775C15.1445 11.5382 16.0722 11.9147 16.6041 11.3674L20.922 6.92433C21.2467 6.59021 21.242 6.05696 20.9113 5.72871L16.5934 1.44208ZM3.49194 3.56564C1.97316 3.56564 0.741943 4.79686 0.741943 6.31564V16.3218C0.741943 17.8406 1.97316 19.0718 3.49194 19.0718H17.4291C18.9479 19.0718 20.1791 17.8406 20.1791 16.3218V14.3247C20.1791 13.9105 19.8433 13.5747 19.4291 13.5747C19.0149 13.5747 18.6791 13.9105 18.6791 14.3247V16.3218C18.6791 17.0121 18.1194 17.5718 17.4291 17.5718H3.49194C2.80159 17.5718 2.24194 17.0121 2.24194 16.3218V6.31564C2.24194 5.62529 2.80159 5.06564 3.49194 5.06564H6.67822C7.09244 5.06564 7.42822 4.72986 7.42822 4.31564C7.42822 3.90143 7.09244 3.56564 6.67822 3.56564H3.49194Z" fill="#323130"/>
</svg>
